<svg width="171" height="122" viewBox="0 0 171 122" fill="none" xmlns="http://www.w3.org/2000/svg">
<g filter="url(#filter0_d)">
<path d="M80.9504 19.2965C80.9504 13.6777 77.0573 5.49017 70.5153 5.49017C65.3379 5.49017 63.0101 10.8281 63.0101 15.3232C63.0101 20.9421 66.9433 29.1296 73.4452 29.1296C78.6225 29.1296 80.9504 23.7916 80.9504 19.2965ZM67.2243 38.6817C67.2243 32.8621 62.5285 24.9556 56.1069 24.9556C51.7322 24.9556 49.6452 29.0493 49.6452 32.9424C49.6452 38.7619 54.341 46.6284 60.7625 46.6284C65.1774 46.6284 67.2243 42.5747 67.2243 38.6817ZM83.0374 37.598C73.2043 37.598 59.9197 51.7255 59.9197 61.2374C59.9197 65.7727 63.3713 67.0971 67.2644 67.0971C73.0839 67.0971 77.6593 63.5251 83.0374 63.5251C88.1746 63.5251 92.5092 67.1373 97.8873 67.1373C101.981 67.1373 106.155 66.3346 106.155 61.2374C106.155 51.7656 92.8704 37.598 83.0374 37.598ZM92.6296 29.1296C99.1314 29.1296 103.065 20.9421 103.065 15.3232C103.065 10.8281 100.737 5.49017 95.5594 5.49017C89.0175 5.49017 85.1244 13.6777 85.1244 19.2965C85.1244 23.7916 87.4522 29.1296 92.6296 29.1296ZM109.968 24.9556C103.546 24.9556 98.8505 32.8621 98.8505 38.6817C98.8505 42.5747 100.897 46.6284 105.312 46.6284C111.734 46.6284 116.43 38.7619 116.43 32.9424C116.43 29.0493 114.343 24.9556 109.968 24.9556Z" fill="#FF9933"/>
</g>
<path d="M5.5739 104C5.3368 104 5.1234 103.917 4.93372 103.751C4.76775 103.561 4.68476 103.348 4.68476 103.111V79.9932C4.68476 79.7324 4.76775 79.519 4.93372 79.353C5.1234 79.187 5.3368 79.1041 5.5739 79.1041H15.2478C18.3538 79.1041 20.7723 79.8154 22.5031 81.238C24.2577 82.6369 25.135 84.6286 25.135 87.213C25.135 88.8728 24.7438 90.2835 23.9613 91.4453C23.1789 92.6071 22.1001 93.4963 20.7249 94.1128L25.5974 102.862C25.6685 103.004 25.704 103.135 25.704 103.253C25.704 103.443 25.6211 103.621 25.4551 103.787C25.3128 103.929 25.1469 104 24.9572 104H20.2269C19.5393 104 19.0533 103.68 18.7687 103.04L14.7143 95.2153H11.0866V103.111C11.0866 103.372 10.9917 103.585 10.802 103.751C10.6361 103.917 10.4227 104 10.1619 104H5.5739ZM15.1766 90.165C16.2673 90.165 17.0972 89.9042 17.6662 89.3825C18.2353 88.8372 18.5198 88.0903 18.5198 87.1419C18.5198 86.1935 18.2353 85.4466 17.6662 84.9013C17.1209 84.3322 16.291 84.0477 15.1766 84.0477H11.0866V90.165H15.1766ZM34.4321 104.356C33.1754 104.356 32.0255 104.119 30.9822 103.644C29.9627 103.146 29.1565 102.483 28.5637 101.653C27.9947 100.799 27.7102 99.8625 27.7102 98.843C27.7102 97.207 28.3741 95.891 29.7018 94.8952C31.0533 93.8994 32.9028 93.2118 35.2501 92.8324L39.6958 92.1566V91.6587C39.6958 90.7577 39.5061 90.0938 39.1267 89.6671C38.7474 89.2403 38.1072 89.0269 37.2062 89.0269C36.6609 89.0269 36.2104 89.1217 35.8547 89.3114C35.499 89.5011 35.1315 89.7619 34.7522 90.0938C34.4202 90.3784 34.1713 90.568 34.0053 90.6629C33.9342 90.8526 33.8037 90.9474 33.6141 90.9474H29.7374C29.5003 90.9474 29.2988 90.8763 29.1328 90.734C28.9905 90.568 28.9313 90.3784 28.955 90.165C28.9787 89.5248 29.2869 88.8135 29.8797 88.031C30.4961 87.2486 31.4208 86.5728 32.6538 86.0038C33.9104 85.4347 35.4516 85.1502 37.2773 85.1502C40.1937 85.1502 42.3514 85.8023 43.7503 87.1063C45.1492 88.3867 45.8486 90.1176 45.8486 92.2989V103.111C45.8486 103.348 45.7657 103.561 45.5997 103.751C45.4337 103.917 45.2203 104 44.9595 104H40.8339C40.5968 104 40.3834 103.917 40.1937 103.751C40.0277 103.561 39.9447 103.348 39.9447 103.111V101.866C39.4231 102.601 38.6881 103.206 37.7397 103.68C36.815 104.13 35.7124 104.356 34.4321 104.356ZM36.1037 100.301C37.1943 100.301 38.0716 99.9455 38.7355 99.2342C39.4231 98.5229 39.7669 97.4796 39.7669 96.1044V95.6065L36.7438 96.14C34.6099 96.5194 33.5429 97.2662 33.5429 98.3806C33.5429 98.9734 33.7919 99.4476 34.2898 99.8033C34.7877 100.135 35.3923 100.301 36.1037 100.301ZM56.7617 104.356C54.4381 104.356 52.6243 103.632 51.3202 102.186C50.0398 100.716 49.3404 98.6533 49.2218 95.9977L49.1863 94.7529L49.2218 93.4726C49.3167 90.9118 50.0161 88.8846 51.3202 87.3909C52.648 85.8971 54.4618 85.1502 56.7617 85.1502C58.9194 85.1502 60.6621 85.8497 61.9899 87.2486V79.6375C61.9899 79.3767 62.0729 79.1633 62.2388 78.9974C62.4048 78.8314 62.6182 78.7484 62.879 78.7484H67.218C67.4788 78.7484 67.6922 78.8314 67.8582 78.9974C68.0242 79.1633 68.1072 79.3767 68.1072 79.6375V103.111C68.1072 103.348 68.0242 103.561 67.8582 103.751C67.6922 103.917 67.4788 104 67.218 104H63.1991C62.962 104 62.7486 103.917 62.5589 103.751C62.393 103.561 62.31 103.348 62.31 103.111V101.973C61.0059 103.561 59.1565 104.356 56.7617 104.356ZM58.7178 99.5899C59.7848 99.5899 60.5791 99.2579 61.1007 98.594C61.6224 97.9064 61.9187 97.0291 61.9899 95.9622C62.0136 95.6539 62.0254 95.2034 62.0254 94.6107C62.0254 94.0416 62.0136 93.603 61.9899 93.2947C61.9425 92.3226 61.6461 91.5165 61.1007 90.8763C60.5554 90.2361 59.7611 89.916 58.7178 89.916C57.6034 89.916 56.7973 90.248 56.2994 90.9118C55.8252 91.5757 55.5525 92.4886 55.4814 93.6504C55.4577 93.8875 55.4458 94.255 55.4458 94.7529C55.4458 95.2509 55.4577 95.6184 55.4814 95.8555C55.5525 97.0173 55.8252 97.9301 56.2994 98.594C56.7973 99.2579 57.6034 99.5899 58.7178 99.5899ZM77.8471 104.356C76.5905 104.356 75.4405 104.119 74.3973 103.644C73.3777 103.146 72.5716 102.483 71.9788 101.653C71.4098 100.799 71.1252 99.8625 71.1252 98.843C71.1252 97.207 71.7891 95.891 73.1169 94.8952C74.4684 93.8994 76.3178 93.2118 78.6651 92.8324L83.1109 92.1566V91.6587C83.1109 90.7577 82.9212 90.0938 82.5418 89.6671C82.1624 89.2403 81.5223 89.0269 80.6213 89.0269C80.0759 89.0269 79.6254 89.1217 79.2698 89.3114C78.9141 89.5011 78.5466 89.7619 78.1672 90.0938C77.8353 90.3784 77.5863 90.568 77.4204 90.6629C77.3492 90.8526 77.2188 90.9474 77.0291 90.9474H73.1525C72.9154 90.9474 72.7138 90.8763 72.5479 90.734C72.4056 90.568 72.3463 90.3784 72.37 90.165C72.3937 89.5248 72.702 88.8135 73.2947 88.031C73.9112 87.2486 74.8359 86.5728 76.0689 86.0038C77.3255 85.4347 78.8667 85.1502 80.6924 85.1502C83.6088 85.1502 85.7664 85.8023 87.1653 87.1063C88.5642 88.3867 89.2637 90.1176 89.2637 92.2989V103.111C89.2637 103.348 89.1807 103.561 89.0147 103.751C88.8488 103.917 88.6354 104 88.3746 104H84.249C84.0118 104 83.7985 103.917 83.6088 103.751C83.4428 103.561 83.3598 103.348 83.3598 103.111V101.866C82.8382 102.601 82.1032 103.206 81.1547 103.68C80.23 104.13 79.1275 104.356 77.8471 104.356ZM79.5187 100.301C80.6094 100.301 81.4867 99.9455 82.1506 99.2342C82.8382 98.5229 83.182 97.4796 83.182 96.1044V95.6065L80.1589 96.14C78.025 96.5194 76.958 97.2662 76.958 98.3806C76.958 98.9734 77.207 99.4476 77.7049 99.8033C78.2028 100.135 78.8074 100.301 79.5187 100.301ZM94.1662 104C93.9054 104 93.692 103.917 93.526 103.751C93.36 103.585 93.2771 103.372 93.2771 103.111V86.395C93.2771 86.1342 93.36 85.9208 93.526 85.7548C93.692 85.5889 93.9054 85.5059 94.1662 85.5059H98.2562C98.5171 85.5059 98.7305 85.6007 98.8964 85.7904C99.0861 85.9564 99.181 86.1579 99.181 86.395V87.8176C100.485 86.2765 102.24 85.5059 104.445 85.5059H106.01C106.27 85.5059 106.484 85.5889 106.65 85.7548C106.816 85.9208 106.899 86.1342 106.899 86.395V90.0583C106.899 90.2954 106.816 90.5088 106.65 90.6985C106.484 90.8644 106.27 90.9474 106.01 90.9474H102.56C101.588 90.9474 100.829 91.2201 100.283 91.7654C99.7619 92.2871 99.501 93.0339 99.501 94.0061V103.111C99.501 103.372 99.4062 103.585 99.2165 103.751C99.0505 103.917 98.8372 104 98.5763 104H94.1662ZM110.708 104C110.471 104 110.257 103.917 110.068 103.751C109.902 103.561 109.819 103.348 109.819 103.111V79.9932C109.819 79.7324 109.902 79.519 110.068 79.353C110.257 79.187 110.471 79.1041 110.708 79.1041H120.666C123.701 79.1041 126.084 79.8035 127.815 81.2024C129.569 82.6013 130.447 84.6404 130.447 87.3197C130.447 89.9753 129.581 91.9788 127.85 93.3303C126.12 94.6581 123.725 95.322 120.666 95.322H116.434V103.111C116.434 103.372 116.339 103.585 116.149 103.751C115.983 103.917 115.77 104 115.509 104H110.708ZM120.488 90.4139C121.532 90.4139 122.35 90.1531 122.942 89.6315C123.535 89.0861 123.832 88.2918 123.832 87.2486C123.832 86.2765 123.547 85.5059 122.978 84.9368C122.433 84.3441 121.603 84.0477 120.488 84.0477H116.327V90.4139H120.488ZM141.789 104.356C138.944 104.356 136.704 103.585 135.067 102.044C133.431 100.503 132.578 98.2621 132.507 95.322V94.0772C132.602 91.2794 133.467 89.098 135.103 87.5331C136.763 85.9445 138.98 85.1502 141.754 85.1502C143.769 85.1502 145.465 85.5652 146.84 86.395C148.239 87.2012 149.282 88.3156 149.969 89.7382C150.681 91.1608 151.036 92.7968 151.036 94.6462V95.4998C151.036 95.7369 150.953 95.9503 150.787 96.14C150.622 96.306 150.408 96.389 150.147 96.389H138.766V96.6379C138.814 97.7523 139.086 98.6533 139.584 99.3409C140.082 100.029 140.805 100.372 141.754 100.372C142.347 100.372 142.833 100.254 143.212 100.017C143.591 99.7558 143.935 99.4476 144.243 99.0919C144.457 98.8311 144.623 98.677 144.741 98.6296C144.884 98.5585 145.097 98.5229 145.382 98.5229H149.792C150.005 98.5229 150.183 98.594 150.325 98.7363C150.491 98.8548 150.574 99.0208 150.574 99.2342C150.574 99.8507 150.218 100.562 149.507 101.368C148.82 102.174 147.812 102.874 146.484 103.467C145.156 104.059 143.591 104.356 141.789 104.356ZM144.777 92.868V92.7968C144.777 91.635 144.504 90.7222 143.959 90.0583C143.437 89.3707 142.702 89.0269 141.754 89.0269C140.829 89.0269 140.094 89.3707 139.549 90.0583C139.027 90.7222 138.766 91.635 138.766 92.7968V92.868H144.777ZM163.762 104C158.854 104 156.4 101.665 156.4 96.9936V90.165H153.626C153.365 90.165 153.139 90.082 152.95 89.916C152.784 89.75 152.701 89.5366 152.701 89.2758V86.395C152.701 86.1342 152.784 85.9208 152.95 85.7548C153.139 85.5889 153.365 85.5059 153.626 85.5059H156.4V79.6375C156.4 79.3767 156.483 79.1633 156.649 78.9974C156.838 78.8314 157.052 78.7484 157.289 78.7484H161.414C161.675 78.7484 161.889 78.8314 162.055 78.9974C162.221 79.1633 162.304 79.3767 162.304 79.6375V85.5059H166.749C167.01 85.5059 167.223 85.5889 167.389 85.7548C167.579 85.9208 167.674 86.1342 167.674 86.395V89.2758C167.674 89.5366 167.579 89.75 167.389 89.916C167.223 90.082 167.01 90.165 166.749 90.165H162.304V96.4957C162.304 98.2502 162.979 99.1275 164.331 99.1275H167.069C167.33 99.1275 167.544 99.2105 167.71 99.3765C167.875 99.5424 167.958 99.7558 167.958 100.017V103.111C167.958 103.348 167.875 103.561 167.71 103.751C167.544 103.917 167.33 104 167.069 104H163.762Z" fill="#FF9933"/>
<defs>
<filter id="filter0_d" x="46.4838" y="5.49011" width="73.1071" height="67.9699" filterUnits="userSpaceOnUse" color-interpolation-filters="sRGB">
<feFlood flood-opacity="0" result="BackgroundImageFix"/>
<feColorMatrix in="SourceAlpha" type="matrix" values="0 0 0 0 0 0 0 0 0 0 0 0 0 0 0 0 0 0 127 0"/>
<feOffset dy="3.16139"/>
<feGaussianBlur stdDeviation="1.58069"/>
<feColorMatrix type="matrix" values="0 0 0 0 0 0 0 0 0 0 0 0 0 0 0 0 0 0 0.25 0"/>
<feBlend mode="normal" in2="BackgroundImageFix" result="effect1_dropShadow"/>
<feBlend mode="normal" in="SourceGraphic" in2="effect1_dropShadow" result="shape"/>
</filter>
</defs>
</svg>
